<svg xmlns="http://www.w3.org/2000/svg" width="135" height="39" fill="none"><path fill="#000" d="M14.446 1.378c-2.208.536-4.92 1.86-7.065 3.47C2.807 8.317 0 14.025 0 19.86c0 1.546.126 1.988.789 2.619.883.914 1.324.977 2.302.283.568-.41.694-.788.694-2.27 0-2.492.726-5.678 1.766-7.665C7.507 8.916 12.27 5.54 16.465 5.037c2.429-.284 3.407-.978 3.407-2.303 0-1.766-1.861-2.24-5.426-1.356ZM24.193 1.82c-2.177.662-2.618 2.302-1.325 4.888 1.293 2.65 2.933 3.344 4.416 1.861.473-.504.568-.473 1.356.095 1.356 1.01 3.438 4.195 4.164 6.403.883 2.681.914 6.97.063 9.526-.789 2.365-2.46 5.11-3.943 6.434l-1.199 1.104-.82-.662c-1.64-1.293-2.902-.662-4.353 2.176-.977 1.956-.977 2.618-.063 3.66 1.483 1.734 5.867 1.356 6.687-.6.253-.536 1.388-1.987 2.587-3.186 2.334-2.365 4.069-5.362 5.015-8.516.883-2.965.757-8.17-.284-11.135-1.072-3.09-2.523-5.393-4.794-7.664-1.041-1.041-2.019-2.366-2.208-2.902-.473-1.514-2.934-2.177-5.3-1.483Z"/><path fill="#000" d="M17.348 11.377c-.915.473-1.577 1.608-1.577 2.807 0 .82-.095.883-1.325.883H13.09l-.883 4.51c-1.01 5.237-1.041 5.647-.284 6.309.441.41 1.546.505 6.371.536 3.218.032 6.088.032 6.372.032.315-.032.788-.379 1.04-.789.474-.725.442-1.104-.315-5.141-1.104-5.899-.914-5.457-2.554-5.457h-1.388v-1.23c0-1.01-.19-1.388-.978-2.05-1.073-.915-1.924-1.01-3.123-.41Zm2.776 1.42c.19.283.378.882.378 1.387 0 .852-.031.883-1.766.883h-1.735l.095-1.167c.158-1.798 1.924-2.46 3.028-1.104Zm0 5.203c.82.884.473 1.64-.662 1.42-.537-.095-.884.031-1.168.473-.378.6-.378.6-1.009-.032l-.662-.63.694-.978c.851-1.167 1.86-1.262 2.807-.253Zm-3.217 3.218c.284.441.725.788.946.788.252 0 .441.284.441.631 0 .536-.22.631-1.261.631-1.42 0-2.05-.725-1.704-2.05.253-1.01.915-1.01 1.578 0Zm4.857-.126c.505.883-.347 2.176-1.42 2.176h-1.009c-.157 0-.252-.315-.252-.725 0-.505.158-.663.568-.6.41.063.567-.063.536-.473-.095-.915-.032-1.04.63-1.04.316 0 .758.283.947.662ZM1.798 26.296c-2.366 2.334-.662 6.12 2.713 6.12 2.744 0 4.195-3.565 2.207-5.426-1.892-1.766-3.627-1.987-4.92-.694ZM8.516 33.204c-.504.63-.504 1.924.032 2.555 1.167 1.42 6.624 3.154 8.895 2.87 1.514-.22 2.113-.694 2.113-1.83 0-1.293-.662-1.734-3.123-2.113-1.23-.189-3.028-.694-4.005-1.135-2.02-.915-3.344-1.041-3.912-.347Z"/></svg>